<svg width="500" height="570" viewBox="0 0 500 570" fill="none" xmlns="http://www.w3.org/2000/svg">
<path d="M250.02 71.762C112.429 71.762 0.890625 183.3 0.890625 320.891C0.890625 426.213 66.2555 516.279 158.622 552.705C186.915 563.865 217.731 570 249.999 570C282.087 570 312.741 563.946 340.913 552.887C433.542 516.562 499.108 426.375 499.108 320.871C499.129 183.3 387.591 71.762 250.02 71.762ZM313.205 482.134C293.63 489.822 272.319 494.02 250.02 494.02C227.599 494.02 206.167 489.762 186.511 481.992C122.317 456.666 76.8906 394.066 76.8906 320.871C76.8906 225.255 154.404 147.722 250.04 147.722C345.676 147.722 423.189 225.235 423.189 320.871C423.149 394.207 377.581 456.888 313.205 482.134Z" fill="url(#paint0_linear_1377_13099)"/>
<path d="M128.674 362.342H138.744V305.211H128.674C125.526 305.211 122.963 307.774 122.963 310.922V356.631C122.983 359.799 125.526 362.342 128.674 362.342Z" fill="url(#paint1_linear_1377_13099)"/>
<path d="M373.707 362.342H363.637V305.211H373.707C376.855 305.211 379.418 307.774 379.418 310.922V356.631C379.398 359.799 376.855 362.342 373.707 362.342Z" fill="url(#paint2_linear_1377_13099)"/>
<path d="M343.516 530.688H159.349C147.967 530.688 138.744 521.466 138.744 510.084V297.118C138.744 285.737 147.967 276.514 159.349 276.514H343.516C354.898 276.514 364.121 285.737 364.121 297.118V510.064C364.121 521.466 354.898 530.688 343.516 530.688Z" fill="url(#paint3_linear_1377_13099)"/>
<path d="M336.272 346.722H166.614C159.712 346.722 154.122 341.132 154.122 334.23V306.119C154.122 299.217 159.712 293.627 166.614 293.627H336.272C343.174 293.627 348.764 299.217 348.764 306.119V334.23C348.784 341.132 343.174 346.722 336.272 346.722Z" fill="url(#paint4_linear_1377_13099)"/>
<path d="M389.851 488.793C379.094 499.267 360.327 502.294 339.157 501.346L340.469 539.507L340.933 552.887C317.947 561.908 293.287 567.598 267.557 569.395C261.765 569.798 255.912 570 250.02 570C217.751 570 186.935 563.865 158.642 552.705L159.409 536.198L160.983 501.79L161.588 488.793L162.214 475.333L162.698 464.678L110.269 488.793C95.0127 473.961 92.4902 450.45 96.0823 425.891C97.9187 413.338 101.329 400.503 105.466 388.415C109.381 376.933 113.922 366.116 118.362 356.833C125.162 342.585 131.661 331.93 135.152 327.954C136.625 326.279 138.643 324.665 141.045 323.151C143.466 321.638 146.251 320.185 149.298 318.833C169.903 309.671 201.99 304.383 201.99 304.383L210.385 304.605L245.176 305.554L250.04 330.618L254.903 305.554L298.11 304.383C298.11 304.383 352.032 313.243 364.948 327.954C368.439 331.93 374.957 342.605 381.738 356.833C386.158 366.116 390.718 376.933 394.633 388.415C406.863 424.175 412.917 466.353 389.851 488.793Z" fill="url(#paint5_linear_1377_13099)"/>
<path d="M340.934 552.887C317.948 561.907 293.287 567.598 267.557 569.394C261.765 569.798 255.913 570 250.02 570C217.751 570 186.936 563.865 158.643 552.705L159.409 536.197C198.661 553.109 268.889 563.683 340.49 539.507L340.934 552.887Z" fill="url(#paint6_linear_1377_13099)"/>
<path d="M105.466 388.415L168.55 407.223L170.629 374.571L118.361 356.833C113.921 366.116 109.381 376.932 105.466 388.415Z" fill="url(#paint7_linear_1377_13099)"/>
<path opacity="0.2" d="M218.497 314.09C218.497 314.09 154.121 330.437 136.726 350.173C119.33 369.93 96.082 425.891 96.082 425.891C97.9185 413.338 101.329 400.503 105.466 388.415C109.381 376.933 113.922 366.116 118.361 356.833C125.162 342.585 131.66 331.93 135.152 327.954C136.625 326.279 138.643 324.665 141.044 323.151C143.466 321.638 146.251 320.185 149.298 318.833C169.903 309.671 201.99 304.383 201.99 304.383L210.385 304.605L218.497 314.09Z" fill="url(#paint8_linear_1377_13099)"/>
<path d="M339.157 501.346L248.929 530.688L160.982 501.79L161.588 488.773L162.193 475.313L168.147 398.364L331.569 407.203L339.157 501.346Z" fill="url(#paint9_linear_1377_13099)"/>
<path d="M170.629 354.229L250.02 387.265L328.663 361.696L336.493 484.031L249.919 513.979L163.364 484.031L170.629 354.229Z" fill="url(#paint10_linear_1377_13099)"/>
<path d="M257.749 456.504C257.749 456.504 251.19 466.474 221.727 473.012C192.243 479.551 179.267 472.548 179.267 472.548L183.222 466.877L214.482 422.198H237.165L244.167 433.862L257.749 456.504Z" fill="url(#paint11_linear_1377_13099)"/>
<path opacity="0.3" d="M257.749 456.505C257.749 456.505 251.19 466.474 221.727 473.012C192.243 479.551 179.267 472.548 179.267 472.548L183.222 466.877C221.908 461.61 238.537 442.419 244.147 433.842L257.749 456.505Z" fill="#F15A24"/>
<path d="M166.553 425.083C166.533 425.083 166.533 425.083 166.513 425.083C166.149 425.063 165.867 424.74 165.907 424.397L169.923 361.656C170.508 352.474 167.643 343.473 161.831 336.349L147.906 319.236C147.684 318.954 147.724 318.55 148.007 318.308C148.29 318.086 148.693 318.126 148.935 318.409L162.86 335.522C168.874 342.928 171.86 352.231 171.235 361.757L167.219 424.498C167.179 424.821 166.896 425.083 166.553 425.083Z" fill="#11223B"/>
<path d="M298.13 304.363C285.921 318.126 272.803 324.745 263.339 327.934C255.367 330.618 250.02 330.86 250.02 330.86C250.02 330.86 244.652 330.618 236.7 327.934C227.256 324.745 214.139 318.126 201.909 304.363L210.183 283.153L216.722 266.383L246.246 279.097L250.02 280.732L270.039 272.115L283.338 266.383L283.984 268.018L289.896 283.174L291.652 287.694L298.13 304.363Z" fill="url(#paint12_linear_1377_13099)"/>
<path d="M304.063 405.811C304.063 405.811 302.166 393.945 307.877 392.996C313.608 392.048 314.96 401.23 308.644 407.062L305.193 408.737L304.063 405.811Z" fill="url(#paint13_linear_1377_13099)"/>
<path d="M295.547 405.811C295.547 405.811 297.464 393.945 291.733 392.996C286.002 392.048 284.65 401.23 290.966 407.062L294.417 408.737L295.547 405.811Z" fill="url(#paint14_linear_1377_13099)"/>
<path d="M299.825 425.971C306.182 425.971 311.328 420.825 311.328 414.468C311.328 408.111 306.182 402.965 299.825 402.965C293.468 402.965 288.322 408.111 288.322 414.468C288.322 420.825 293.488 425.971 299.825 425.971Z" fill="url(#paint15_linear_1377_13099)"/>
<path d="M294.357 417.859C295.103 417.859 295.729 417.253 295.729 416.487C295.729 415.72 295.123 415.114 294.357 415.114C293.59 415.114 292.984 415.72 292.984 416.487C292.984 417.253 293.59 417.859 294.357 417.859Z" fill="#223C6A"/>
<path d="M305.254 417.859C306.021 417.859 306.626 417.253 306.626 416.487C306.626 415.72 306.021 415.114 305.254 415.114C304.507 415.114 303.882 415.72 303.882 416.487C303.882 417.253 304.507 417.859 305.254 417.859Z" fill="#223C6A"/>
<path d="M262.895 310.498L263.339 327.934C266.628 326.824 270.342 325.311 274.317 323.212C281.784 319.277 290.139 313.344 298.13 304.363L293.59 292.699L289.856 283.133L270.099 296.473C265.458 299.621 262.754 304.908 262.895 310.498Z" fill="url(#paint16_linear_1377_13099)"/>
<path d="M274.075 313.465L274.317 323.212C281.784 319.277 290.139 313.343 298.13 304.363L293.59 292.699L280.069 301.82C276.214 304.444 273.954 308.823 274.075 313.465Z" fill="url(#paint17_linear_1377_13099)"/>
<path d="M321.439 78.462C319.441 101.549 308.604 126.916 280.048 150.446L263.863 148.267L254.601 147.015L297.888 0C297.888 0 325.192 35.2151 321.439 78.462Z" fill="url(#paint18_linear_1377_13099)"/>
<path opacity="0.5" d="M321.438 78.462C319.441 101.549 308.604 126.916 280.048 150.446L263.863 148.267C264.832 137.975 271.875 94.0414 321.438 78.462Z" fill="#F15A24"/>
<path d="M178.581 78.462C180.579 101.549 191.416 126.916 219.971 150.446L236.156 148.267L245.419 147.015L202.132 0C202.132 0 174.827 35.2151 178.581 78.462Z" fill="url(#paint19_linear_1377_13099)"/>
<path opacity="0.5" d="M178.581 78.462C180.579 101.549 191.416 126.916 219.971 150.446L236.156 148.267C235.188 137.975 228.165 94.0414 178.581 78.462Z" fill="#F15A24"/>
<path d="M309.23 255.264C317.584 259.26 328.986 256.596 328.986 256.596C319.683 268.865 307.171 270.419 300.713 270.278C298.07 270.218 296.415 269.895 296.415 269.895C287.535 278.774 276.497 283.537 267.415 286.12C256.054 289.329 243.986 289.329 232.604 286.12C223.523 283.557 212.484 278.774 203.605 269.895C203.605 269.895 201.829 270.258 199.003 270.278C192.445 270.359 180.195 268.664 171.033 256.596C171.033 256.596 182.435 259.26 190.79 255.264C190.79 255.264 174.645 257.928 162.113 240.068C162.113 240.068 184.029 242.086 181.668 211.956C181.608 211.23 181.567 210.503 181.527 209.757C180.982 200.453 181.487 189.818 183.464 179.102C187.662 156.197 198.539 132.97 220.132 121.85C225.178 119.247 230.788 117.33 237.064 116.2C238.537 115.937 240.051 115.715 241.605 115.554C244.309 115.251 247.114 115.09 250.04 115.09C253.269 115.09 256.356 115.291 259.303 115.634C260.978 115.836 262.612 116.099 264.187 116.422C269.575 117.491 274.499 119.186 278.959 121.366C301.521 132.445 312.66 156.561 316.757 180.111L316.777 180.172C317.221 182.654 317.564 185.136 317.847 187.598C318.492 193.128 318.775 198.556 318.714 203.682C318.694 206.185 318.593 208.627 318.432 210.967C318.432 211.29 318.392 211.613 318.371 211.936C316.03 242.066 337.926 240.048 337.926 240.048C325.374 257.928 309.23 255.264 309.23 255.264Z" fill="url(#paint20_linear_1377_13099)"/>
<path d="M266.063 189.314C263.238 191.574 259.181 189.314 259.444 185.702C259.504 184.814 259.706 183.805 260.11 182.674C261.987 177.448 270.583 165.582 295.688 163.079C296.798 162.978 297.706 163.947 297.504 165.037C297.02 167.68 294.941 169.759 292.298 170.243C287.091 171.212 278.575 173.573 274.135 178.86C269.837 183.986 268.384 187.457 266.063 189.314Z" fill="#F15A24"/>
<path d="M233.956 189.314C236.781 191.574 240.837 189.314 240.575 185.702C240.515 184.814 240.313 183.805 239.909 182.674C238.032 177.448 229.435 165.582 204.331 163.079C203.221 162.978 202.313 163.947 202.515 165.037C202.999 167.68 205.078 169.759 207.721 170.243C212.928 171.212 221.444 173.573 225.884 178.86C230.202 183.986 231.655 187.457 233.956 189.314Z" fill="#F15A24"/>
<path d="M205.844 186.347L199.326 219.181L181.506 209.757C181.385 207.436 181.305 205.035 181.305 202.593C181.305 197.467 181.628 192.059 182.294 186.569C182.596 184.087 182.98 181.605 183.444 179.123L205.844 186.347Z" fill="url(#paint21_linear_1377_13099)"/>
<path d="M188.933 191.352V200.756C188.933 203.017 186.673 204.591 184.554 203.804L181.325 202.593C181.325 197.467 181.648 192.059 182.314 186.569L186.855 188.325C188.106 188.81 188.933 190 188.933 191.352Z" fill="url(#paint22_linear_1377_13099)"/>
<path d="M318.694 203.682C318.674 206.185 318.573 208.627 318.412 210.968L301.238 220.049L294.72 187.235L316.737 180.111L316.757 180.172C317.201 182.654 317.544 185.136 317.826 187.598C318.472 193.148 318.755 198.556 318.694 203.682Z" fill="url(#paint23_linear_1377_13099)"/>
<path d="M318.694 203.682L316.03 204.671C313.911 205.458 311.631 203.884 311.631 201.624V192.22C311.631 190.888 312.458 189.677 313.709 189.193L317.826 187.599C318.472 193.148 318.755 198.557 318.694 203.682Z" fill="url(#paint24_linear_1377_13099)"/>
<path d="M308.099 171.03L302.59 219.322C302.166 222.975 300.229 226.184 297.363 228.242C295.91 229.292 294.215 230.038 292.379 230.402L289.311 231.31L284.65 232.682L281.037 233.752L274.801 235.588L270.12 236.96C265.216 238.393 260.211 239.301 255.186 239.644C252.583 239.846 249.959 239.886 247.356 239.786C247.255 239.786 247.154 239.786 247.053 239.786C243.32 239.624 239.607 239.18 235.934 238.433C235.591 238.373 235.248 238.292 234.884 238.211C233.209 237.848 231.555 237.424 229.9 236.96L207.62 230.422C202.172 229.332 198.055 224.852 197.429 219.343L191.92 171.051L200.577 173.936L203.12 174.784L205.542 175.591L210.668 177.307L221.101 180.778L248.082 189.778L250 190.424L256.296 188.325L259.888 187.134L264.388 185.621L272.017 183.078L308.099 171.03Z" fill="url(#paint25_linear_1377_13099)"/>
<path d="M247.336 239.765C247.235 239.765 247.134 239.765 247.033 239.765C243.3 239.604 239.586 239.16 235.914 238.413C235.57 238.353 235.227 238.272 234.864 238.191L199.447 176.176L200.577 173.916L203.12 174.764L205.542 175.571L210.668 177.286L247.336 239.765Z" fill="url(#paint26_linear_1377_13099)"/>
<path d="M297.383 228.242C295.93 229.292 294.235 230.038 292.399 230.402L289.331 231.31L264.408 185.601L272.036 183.058L297.383 228.242Z" fill="url(#paint27_linear_1377_13099)"/>
<path d="M274.801 235.548L270.119 236.92C265.216 238.353 260.211 239.261 255.186 239.604L221.121 180.737L248.102 189.738L274.801 235.548Z" fill="url(#paint28_linear_1377_13099)"/>
<path d="M284.67 232.662L281.038 233.731L256.316 188.305L259.909 187.094L284.67 232.662Z" fill="url(#paint29_linear_1377_13099)"/>
<path d="M250.02 190.404L308.1 171.03L306.707 183.341L257.628 199.324C252.684 200.938 247.356 200.877 242.452 199.162L193.171 181.908L191.94 171.03L250.02 190.404Z" fill="url(#paint30_linear_1377_13099)"/>
<path d="M235.045 153.271C226.852 153.271 221.645 129.801 220.132 121.85C225.177 119.247 230.787 117.33 237.063 116.2C239.303 130.508 241.826 153.271 235.045 153.271Z" fill="#FFCA83"/>
<path d="M259.282 115.634C258.757 128.489 256.638 163.079 248.909 163.079C240.837 163.079 241.281 126.593 241.583 115.554C244.288 115.251 247.093 115.09 250.019 115.09C253.248 115.09 256.335 115.271 259.282 115.634Z" fill="#FFCA83"/>
<path d="M278.938 121.366C276.819 131.295 271.33 153.857 265.236 153.251C258.334 152.585 262.996 123.081 264.166 116.402C269.574 117.491 274.478 119.166 278.938 121.366Z" fill="#FFCA83"/>
<path d="M255.327 243.781H250.019H244.712C242.411 243.781 240.555 245.739 240.555 248.18V248.201C240.555 249.714 241.301 251.127 242.532 251.934L247.941 255.466C248.587 255.889 249.293 256.091 250.019 256.111C250.746 256.091 251.452 255.889 252.098 255.466L257.506 251.934C258.737 251.127 259.484 249.714 259.484 248.201V248.18C259.484 245.739 257.627 243.781 255.327 243.781Z" fill="#F15A24"/>
<path opacity="0.5" d="M203.604 269.895C203.604 269.895 201.828 270.258 199.003 270.278C197.893 266.928 197.429 263.255 197.429 263.255C199.043 265.718 203.604 269.895 203.604 269.895Z" fill="#F15A24"/>
<path opacity="0.5" d="M302.045 262.489C302.045 262.489 301.783 266.666 300.713 270.278C298.07 270.218 296.415 269.895 296.415 269.895C296.415 269.895 299.765 266.182 302.045 262.489Z" fill="#F15A24"/>
<path d="M248.143 265.617C243.784 265.617 240.696 264.89 240.394 264.809C239.93 264.688 239.647 264.224 239.748 263.76C239.869 263.296 240.333 262.993 240.797 263.114C240.959 263.155 257.567 267.029 268.667 256.132C269.01 255.789 269.575 255.789 269.898 256.152C270.241 256.495 270.241 257.04 269.878 257.383C262.976 264.164 254.298 265.617 248.143 265.617Z" fill="#F15A24"/>
<path d="M313.872 328.277L308.08 358.548C305.92 369.869 298.131 379.294 287.415 383.572L269.636 390.655L244.571 397.355L237.771 387.628L223.685 367.488L236.721 347.045L264.893 328.983C264.893 328.983 272.582 311.467 277.567 301.8C280.029 297.038 286.587 296.775 287.738 300.872C289.917 308.601 284.166 326.138 284.004 326.602L299.685 317.965C304.972 315.059 311.006 317.642 313.206 322.425C313.993 324.14 314.275 326.138 313.872 328.277Z" fill="url(#paint31_linear_1377_13099)"/>
<path opacity="0.3" d="M313.871 328.277L308.08 358.548C305.92 369.869 298.131 379.294 287.415 383.572L269.636 390.655L244.571 397.355L237.771 387.628C244.692 380.121 256.216 370.879 274.075 365.147C298.191 357.418 308.968 334.917 313.185 322.405C313.992 324.14 314.275 326.138 313.871 328.277Z" fill="#F15A24"/>
<path d="M269.635 390.655L258.274 401.028L162.799 488.006C159.631 490.892 156.12 493.173 152.447 494.848C135.838 502.395 115.436 497.794 103.933 482.275C100.34 477.432 98.0197 472.064 96.9098 466.554C96.1631 462.922 95.9411 459.229 96.2034 455.576C97.1116 443.508 103.468 431.945 114.527 424.902L221.383 356.813L236.721 347.045C236.721 347.045 236.983 374.107 269.635 390.655Z" fill="url(#paint32_linear_1377_13099)"/>
<path d="M269.635 390.655L258.253 401.008C223.099 389.485 221.363 356.813 221.363 356.813L236.701 347.045C236.721 347.045 236.983 374.107 269.635 390.655Z" fill="url(#paint33_linear_1377_13099)"/>
<path d="M233.855 403.026L155.736 464.012C155.736 464.012 153.577 463.063 150.368 460.763C142.901 455.435 129.744 442.842 125.082 418.161L208.307 365.127C208.307 365.127 213.957 388.113 228.992 399.817C230.505 401.028 232.14 402.098 233.855 403.026Z" fill="url(#paint34_linear_1377_13099)"/>
<path d="M233.855 403.026L155.736 464.012C155.736 464.012 153.577 463.063 150.368 460.763L228.971 399.837C230.505 401.028 232.14 402.098 233.855 403.026Z" fill="#5BA8D3"/>
<path d="M160.963 444.275L156.281 447.726L144.697 431.945L149.379 428.514L160.963 444.275Z" fill="url(#paint35_linear_1377_13099)"/>
<path d="M153.314 417.353L148.629 420.792L164.14 441.924L168.825 438.485L153.314 417.353Z" fill="#5BA8D3"/>
<path d="M176.724 432.732L172.042 436.163L152.709 409.827L157.391 406.396L176.724 432.732Z" fill="url(#paint36_linear_1377_13099)"/>
<path d="M172.993 411.141L168.308 414.58L179.89 430.359L184.575 426.92L172.993 411.141Z" fill="#5BA8D3"/>
<path d="M192.465 421.168L187.783 424.599L172.89 404.318L177.572 400.887L192.465 421.168Z" fill="url(#paint37_linear_1377_13099)"/>
<path d="M191.436 387.265C185.321 392.532 184.615 401.775 189.882 407.89C195.149 414.004 204.392 414.711 210.506 409.443C216.641 404.176 217.327 394.934 212.06 388.799C206.793 382.684 197.571 381.998 191.436 387.265ZM206.975 405.347C203.12 408.656 197.308 408.233 193.979 404.358C190.669 400.503 191.093 394.691 194.947 391.362C198.802 388.032 204.634 388.476 207.943 392.33C211.273 396.205 210.849 402.017 206.975 405.347Z" fill="url(#paint38_linear_1377_13099)"/>
<path d="M191.436 387.265L194.967 391.362C191.113 394.671 190.669 400.504 193.999 404.358L189.882 407.89C184.615 401.775 185.321 392.532 191.436 387.265Z" fill="url(#paint39_linear_1377_13099)"/>
<path d="M135.031 420.522C134.909 420.522 134.788 420.442 134.708 420.341C134.566 420.139 134.607 419.877 134.809 419.735L143.87 413.298C144.071 413.156 144.334 413.197 144.475 413.399C144.616 413.6 144.576 413.863 144.374 414.004L135.313 420.442C135.232 420.502 135.131 420.522 135.031 420.522Z" fill="#5BA8D3"/>
<path d="M137.129 422.944C137.008 422.944 136.887 422.863 136.806 422.762C136.665 422.561 136.705 422.298 136.907 422.157L143.123 417.737C143.325 417.596 143.587 417.637 143.728 417.838C143.869 418.04 143.829 418.302 143.627 418.444L137.412 422.863C137.331 422.924 137.23 422.944 137.129 422.944Z" fill="#5BA8D3"/>
<path d="M114.528 425.568C114.306 425.568 114.104 425.467 113.983 425.265C113.781 424.962 113.882 424.559 114.185 424.357L221.041 356.268C221.344 356.066 221.747 356.167 221.949 356.469C222.151 356.772 222.05 357.176 221.747 357.378L114.891 425.467C114.77 425.527 114.649 425.568 114.528 425.568Z" fill="#11223B"/>
<path d="M237.124 310.498L236.68 327.934C233.391 326.824 229.677 325.311 225.702 323.212C218.235 319.277 209.88 313.344 201.889 304.363L206.429 292.699L210.163 283.133L229.919 296.473C234.561 299.621 237.285 304.908 237.124 310.498Z" fill="url(#paint40_linear_1377_13099)"/>
<path d="M225.944 313.465L225.702 323.212C218.235 319.277 209.88 313.343 201.889 304.363L206.429 292.699L219.95 301.82C223.805 304.444 226.065 308.823 225.944 313.465Z" fill="url(#paint41_linear_1377_13099)"/>
<path d="M394.653 388.415L331.569 407.223L329.49 374.571L381.758 356.833C386.198 366.116 390.738 376.932 394.653 388.415Z" fill="url(#paint42_linear_1377_13099)"/>
<path d="M332.679 425.083C332.336 425.083 332.054 424.821 332.034 424.478L328.018 361.737C327.412 352.232 330.379 342.908 336.393 335.502L350.317 318.389C350.539 318.106 350.963 318.066 351.246 318.288C351.528 318.51 351.568 318.934 351.346 319.216L337.422 336.329C331.61 343.473 328.744 352.454 329.329 361.636L333.345 424.377C333.366 424.74 333.103 425.043 332.74 425.063C332.7 425.083 332.679 425.083 332.679 425.083Z" fill="#11223B"/>
<path d="M401.737 469.622C399.235 476.907 395.38 483.425 389.871 488.793C380.891 497.531 366.361 501.083 349.51 501.467C311.631 502.334 261.987 487.179 237.205 478.642C227.599 475.333 221.727 473.012 221.727 473.012C221.727 473.012 238.981 455.354 237.144 422.177L252.825 422.641L263.601 422.964L366.966 426.012L404.199 427.101C406.318 442.358 406.015 457.13 401.737 469.622Z" fill="url(#paint43_linear_1377_13099)"/>
<path d="M237.185 478.642C227.579 475.333 221.706 473.012 221.706 473.012C221.706 473.012 238.96 455.354 237.124 422.177L252.804 422.641C255.004 430.088 259.424 453.921 237.185 478.642Z" fill="url(#paint44_linear_1377_13099)"/>
<path d="M375.038 453.377C374.776 455.738 374.13 459.653 373.545 461.509C372.293 465.505 369.851 468.835 366.683 471.196C362.829 474.062 357.945 475.474 352.9 474.889L258.798 463.991C259.605 462.256 260.332 460.541 260.957 458.866C267.274 441.995 264.913 428.151 263.621 422.964L366.986 426.012C366.966 426.032 378.045 426.859 375.038 453.377Z" fill="url(#paint45_linear_1377_13099)"/>
<path d="M344.888 465.182C354.384 465.182 362.082 457.484 362.082 447.988C362.082 438.492 354.384 430.794 344.888 430.794C335.392 430.794 327.694 438.492 327.694 447.988C327.694 457.484 335.392 465.182 344.888 465.182Z" fill="url(#paint46_linear_1377_13099)"/>
<path d="M344.888 459.794C351.408 459.794 356.693 454.508 356.693 447.988C356.693 441.468 351.408 436.183 344.888 436.183C338.368 436.183 333.082 441.468 333.082 447.988C333.082 454.508 338.368 459.794 344.888 459.794Z" fill="url(#paint47_linear_1377_13099)"/>
<path d="M345.332 441.833L339.217 448.19C338.753 448.674 339.096 449.482 339.762 449.482H343.677L342.668 453.376C342.466 454.123 343.395 454.668 343.94 454.123L350.498 447.706C350.983 447.221 350.64 446.394 349.953 446.394H345.736L346.624 442.519C346.805 441.773 345.877 441.268 345.332 441.833Z" fill="url(#paint48_linear_1377_13099)"/>
<path d="M305.315 438.019L278.03 436.082C276.88 436.001 276.012 435.012 276.093 433.862C276.174 432.712 277.163 431.844 278.313 431.925L305.597 433.862C306.747 433.943 307.615 434.932 307.534 436.082C307.454 437.232 306.465 438.1 305.315 438.019Z" fill="#5BA8D3"/>
<path d="M318.19 446.051L277.546 443.165C276.396 443.085 275.528 442.096 275.609 440.945C275.689 439.795 276.678 438.927 277.829 439.008L318.472 441.894C319.623 441.975 320.49 442.964 320.41 444.114C320.329 445.284 319.34 446.132 318.19 446.051Z" fill="url(#paint49_linear_1377_13099)"/>
<path d="M305.173 452.266L277.041 450.269C275.891 450.188 275.023 449.199 275.104 448.049C275.185 446.898 276.173 446.031 277.324 446.111L305.455 448.109C306.606 448.19 307.473 449.179 307.393 450.329C307.312 451.479 306.323 452.347 305.173 452.266Z" fill="#5BA8D3"/>
<path d="M317.181 460.238L276.537 457.352C275.387 457.271 274.519 456.283 274.6 455.132C274.681 453.982 275.67 453.114 276.82 453.195L317.463 456.081C318.614 456.161 319.481 457.15 319.401 458.301C319.32 459.451 318.331 460.319 317.181 460.238Z" fill="url(#paint50_linear_1377_13099)"/>
<path d="M401.737 469.622C399.235 476.907 395.38 483.426 389.871 488.794C380.891 497.532 366.361 501.084 349.51 501.467C354.615 490.751 368.621 470.631 401.737 469.622Z" fill="url(#paint51_linear_1377_13099)"/>
<path d="M152.446 494.848C135.837 502.395 115.435 497.794 103.932 482.275C100.34 477.432 98.0191 472.064 96.9092 466.554C112.811 467.604 137.512 473.012 152.446 494.848Z" fill="url(#paint52_linear_1377_13099)"/>
<path d="M288.182 239.604L291.39 248.402L297.243 251.611L291.39 254.8L288.182 263.619L284.993 254.8L279.141 251.611L284.993 248.402L288.182 239.604Z" fill="#FFCA83"/>
<defs>
<linearGradient id="paint0_linear_1377_13099" x1="250.012" y1="-43.7549" x2="250.012" y2="594.406" gradientUnits="userSpaceOnUse">
<stop stop-color="white"/>
<stop offset="1" stop-color="#B5E0F7"/>
</linearGradient>
<linearGradient id="paint1_linear_1377_13099" x1="130.864" y1="402.996" x2="130.864" y2="243.986" gradientUnits="userSpaceOnUse">
<stop stop-color="#FF2A64"/>
<stop offset="0.0308184" stop-color="#FF3462"/>
<stop offset="0.1688" stop-color="#FF595A"/>
<stop offset="0.3129" stop-color="#FF7854"/>
<stop offset="0.4626" stop-color="#FF904E"/>
<stop offset="0.6203" stop-color="#FFA24B"/>
<stop offset="0.7913" stop-color="#FFAC49"/>
<stop offset="1" stop-color="#FFAF48"/>
</linearGradient>
<linearGradient id="paint2_linear_1377_13099" x1="371.514" y1="402.996" x2="371.514" y2="243.986" gradientUnits="userSpaceOnUse">
<stop stop-color="#FF2A64"/>
<stop offset="0.0308184" stop-color="#FF3462"/>
<stop offset="0.1688" stop-color="#FF595A"/>
<stop offset="0.3129" stop-color="#FF7854"/>
<stop offset="0.4626" stop-color="#FF904E"/>
<stop offset="0.6203" stop-color="#FFA24B"/>
<stop offset="0.7913" stop-color="#FFAC49"/>
<stop offset="1" stop-color="#FFAF48"/>
</linearGradient>
<linearGradient id="paint3_linear_1377_13099" x1="251.441" y1="593.321" x2="251.441" y2="201.14" gradientUnits="userSpaceOnUse">
<stop stop-color="#002649"/>
<stop offset="0.3213" stop-color="#042A4F"/>
<stop offset="0.7475" stop-color="#0F3460"/>
<stop offset="1" stop-color="#183D6D"/>
</linearGradient>
<linearGradient id="paint4_linear_1377_13099" x1="251.441" y1="464.538" x2="251.441" y2="177.336" gradientUnits="userSpaceOnUse">
<stop stop-color="#183D6D"/>
<stop offset="0.1944" stop-color="#1C4373"/>
<stop offset="0.4529" stop-color="#265483"/>
<stop offset="0.746" stop-color="#376F9F"/>
<stop offset="1" stop-color="#498DBC"/>
</linearGradient>
<linearGradient id="paint5_linear_1377_13099" x1="250.061" y1="667.399" x2="250.061" y2="217.406" gradientUnits="userSpaceOnUse">
<stop stop-color="#223C6A"/>
<stop offset="1" stop-color="#5A8AB7"/>
</linearGradient>
<linearGradient id="paint6_linear_1377_13099" x1="249.782" y1="599.779" x2="249.782" y2="533.521" gradientUnits="userSpaceOnUse">
<stop stop-color="#223C6A"/>
<stop offset="1" stop-color="#5A8AB7"/>
</linearGradient>
<linearGradient id="paint7_linear_1377_13099" x1="138.046" y1="502.717" x2="138.046" y2="318.572" gradientUnits="userSpaceOnUse">
<stop stop-color="#386E9F"/>
<stop offset="1" stop-color="white"/>
</linearGradient>
<linearGradient id="paint8_linear_1377_13099" x1="37.5838" y1="551.628" x2="186.311" y2="304.604" gradientUnits="userSpaceOnUse">
<stop stop-color="#386E9F"/>
<stop offset="1" stop-color="white"/>
</linearGradient>
<linearGradient id="paint9_linear_1377_13099" x1="250.066" y1="609.253" x2="250.066" y2="467.07" gradientUnits="userSpaceOnUse">
<stop stop-color="#386E9F"/>
<stop offset="1" stop-color="white"/>
</linearGradient>
<linearGradient id="paint10_linear_1377_13099" x1="249.923" y1="586.198" x2="249.923" y2="292.893" gradientUnits="userSpaceOnUse">
<stop stop-color="#002649"/>
<stop offset="0.3213" stop-color="#042A4F"/>
<stop offset="0.7475" stop-color="#0F3460"/>
<stop offset="1" stop-color="#183D6D"/>
</linearGradient>
<linearGradient id="paint11_linear_1377_13099" x1="301.509" y1="467.077" x2="147.653" y2="435.166" gradientUnits="userSpaceOnUse">
<stop stop-color="#FF2A64"/>
<stop offset="0.0308184" stop-color="#FF3462"/>
<stop offset="0.1688" stop-color="#FF595A"/>
<stop offset="0.3129" stop-color="#FF7854"/>
<stop offset="0.4626" stop-color="#FF904E"/>
<stop offset="0.6203" stop-color="#FFA24B"/>
<stop offset="0.7913" stop-color="#FFAC49"/>
<stop offset="1" stop-color="#FFAF48"/>
</linearGradient>
<linearGradient id="paint12_linear_1377_13099" x1="250.014" y1="483.624" x2="250.014" y2="61.3761" gradientUnits="userSpaceOnUse">
<stop stop-color="#FF2A64"/>
<stop offset="0.0308184" stop-color="#FF3462"/>
<stop offset="0.1688" stop-color="#FF595A"/>
<stop offset="0.3129" stop-color="#FF7854"/>
<stop offset="0.4626" stop-color="#FF904E"/>
<stop offset="0.6203" stop-color="#FFA24B"/>
<stop offset="0.7913" stop-color="#FFAC49"/>
<stop offset="1" stop-color="#FFAF48"/>
</linearGradient>
<linearGradient id="paint13_linear_1377_13099" x1="307.569" y1="401.855" x2="301.149" y2="425.117" gradientUnits="userSpaceOnUse">
<stop stop-color="white"/>
<stop offset="1" stop-color="#F9E4CE"/>
</linearGradient>
<linearGradient id="paint14_linear_1377_13099" x1="289.166" y1="391.471" x2="295.577" y2="414.619" gradientUnits="userSpaceOnUse">
<stop stop-color="white"/>
<stop offset="1" stop-color="#F9E4CE"/>
</linearGradient>
<linearGradient id="paint15_linear_1377_13099" x1="299.834" y1="401.314" x2="299.834" y2="422.916" gradientUnits="userSpaceOnUse">
<stop stop-color="white"/>
<stop offset="1" stop-color="#F9E4CE"/>
</linearGradient>
<linearGradient id="paint16_linear_1377_13099" x1="280.509" y1="342.214" x2="280.509" y2="260.311" gradientUnits="userSpaceOnUse">
<stop stop-color="#223C6A"/>
<stop offset="1" stop-color="#5A8AB7"/>
</linearGradient>
<linearGradient id="paint17_linear_1377_13099" x1="286.102" y1="349.051" x2="286.102" y2="301.821" gradientUnits="userSpaceOnUse">
<stop stop-color="#002649"/>
<stop offset="0.3213" stop-color="#042A4F"/>
<stop offset="0.7475" stop-color="#0F3460"/>
<stop offset="1" stop-color="#183D6D"/>
</linearGradient>
<linearGradient id="paint18_linear_1377_13099" x1="288.191" y1="214.38" x2="288.191" y2="-77.1014" gradientUnits="userSpaceOnUse">
<stop stop-color="#FF2A64"/>
<stop offset="0.0308184" stop-color="#FF3462"/>
<stop offset="0.1688" stop-color="#FF595A"/>
<stop offset="0.3129" stop-color="#FF7854"/>
<stop offset="0.4626" stop-color="#FF904E"/>
<stop offset="0.6203" stop-color="#FFA24B"/>
<stop offset="0.7913" stop-color="#FFAC49"/>
<stop offset="1" stop-color="#FFAF48"/>
</linearGradient>
<linearGradient id="paint19_linear_1377_13099" x1="211.834" y1="214.38" x2="211.834" y2="-77.1014" gradientUnits="userSpaceOnUse">
<stop stop-color="#FF2A64"/>
<stop offset="0.0308184" stop-color="#FF3462"/>
<stop offset="0.1688" stop-color="#FF595A"/>
<stop offset="0.3129" stop-color="#FF7854"/>
<stop offset="0.4626" stop-color="#FF904E"/>
<stop offset="0.6203" stop-color="#FFA24B"/>
<stop offset="0.7913" stop-color="#FFAC49"/>
<stop offset="1" stop-color="#FFAF48"/>
</linearGradient>
<linearGradient id="paint20_linear_1377_13099" x1="250.012" y1="430.619" x2="250.012" y2="8.37166" gradientUnits="userSpaceOnUse">
<stop stop-color="#FF2A64"/>
<stop offset="0.0308184" stop-color="#FF3462"/>
<stop offset="0.1688" stop-color="#FF595A"/>
<stop offset="0.3129" stop-color="#FF7854"/>
<stop offset="0.4626" stop-color="#FF904E"/>
<stop offset="0.6203" stop-color="#FFA24B"/>
<stop offset="0.7913" stop-color="#FFAC49"/>
<stop offset="1" stop-color="#FFAF48"/>
</linearGradient>
<linearGradient id="paint21_linear_1377_13099" x1="193.582" y1="247.621" x2="193.582" y2="167.105" gradientUnits="userSpaceOnUse">
<stop stop-color="#002649"/>
<stop offset="0.3213" stop-color="#042A4F"/>
<stop offset="0.7475" stop-color="#0F3460"/>
<stop offset="1" stop-color="#183D6D"/>
</linearGradient>
<linearGradient id="paint22_linear_1377_13099" x1="185.126" y1="228.911" x2="185.126" y2="116.018" gradientUnits="userSpaceOnUse">
<stop stop-color="#223C6A"/>
<stop offset="1" stop-color="#5A8AB7"/>
</linearGradient>
<linearGradient id="paint23_linear_1377_13099" x1="306.716" y1="247.621" x2="306.716" y2="167.105" gradientUnits="userSpaceOnUse">
<stop stop-color="#002649"/>
<stop offset="0.3213" stop-color="#042A4F"/>
<stop offset="0.7475" stop-color="#0F3460"/>
<stop offset="1" stop-color="#183D6D"/>
</linearGradient>
<linearGradient id="paint24_linear_1377_13099" x1="315.173" y1="228.911" x2="315.173" y2="116.018" gradientUnits="userSpaceOnUse">
<stop stop-color="#223C6A"/>
<stop offset="1" stop-color="#5A8AB7"/>
</linearGradient>
<linearGradient id="paint25_linear_1377_13099" x1="250.012" y1="284.47" x2="250.012" y2="168.174" gradientUnits="userSpaceOnUse">
<stop stop-color="#386E9F"/>
<stop offset="1" stop-color="white"/>
</linearGradient>
<linearGradient id="paint26_linear_1377_13099" x1="263.428" y1="313.421" x2="216.702" y2="190.337" gradientUnits="userSpaceOnUse">
<stop stop-color="#386E9F"/>
<stop offset="1" stop-color="white"/>
</linearGradient>
<linearGradient id="paint27_linear_1377_13099" x1="314.031" y1="294.211" x2="267.305" y2="171.126" gradientUnits="userSpaceOnUse">
<stop stop-color="#386E9F"/>
<stop offset="1" stop-color="white"/>
</linearGradient>
<linearGradient id="paint28_linear_1377_13099" x1="284.833" y1="305.295" x2="238.107" y2="182.211" gradientUnits="userSpaceOnUse">
<stop stop-color="#386E9F"/>
<stop offset="1" stop-color="white"/>
</linearGradient>
<linearGradient id="paint29_linear_1377_13099" x1="303.757" y1="298.111" x2="257.031" y2="175.027" gradientUnits="userSpaceOnUse">
<stop stop-color="#386E9F"/>
<stop offset="1" stop-color="white"/>
</linearGradient>
<linearGradient id="paint30_linear_1377_13099" x1="250.013" y1="258.638" x2="250.013" y2="149.894" gradientUnits="userSpaceOnUse">
<stop stop-color="#223C6A"/>
<stop offset="1" stop-color="#5A8AB7"/>
</linearGradient>
<linearGradient id="paint31_linear_1377_13099" x1="204.148" y1="410.548" x2="314.696" y2="315.956" gradientUnits="userSpaceOnUse">
<stop stop-color="#FF2A64"/>
<stop offset="0.0308184" stop-color="#FF3462"/>
<stop offset="0.1688" stop-color="#FF595A"/>
<stop offset="0.3129" stop-color="#FF7854"/>
<stop offset="0.4626" stop-color="#FF904E"/>
<stop offset="0.6203" stop-color="#FFA24B"/>
<stop offset="0.7913" stop-color="#FFAC49"/>
<stop offset="1" stop-color="#FFAF48"/>
</linearGradient>
<linearGradient id="paint32_linear_1377_13099" x1="182.857" y1="667.399" x2="182.857" y2="217.406" gradientUnits="userSpaceOnUse">
<stop stop-color="#223C6A"/>
<stop offset="1" stop-color="#5A8AB7"/>
</linearGradient>
<linearGradient id="paint33_linear_1377_13099" x1="299.976" y1="452.544" x2="189.048" y2="304.387" gradientUnits="userSpaceOnUse">
<stop stop-color="#386E9F"/>
<stop offset="1" stop-color="white"/>
</linearGradient>
<linearGradient id="paint34_linear_1377_13099" x1="148.162" y1="374.465" x2="195.648" y2="436.007" gradientUnits="userSpaceOnUse">
<stop stop-color="white"/>
<stop offset="1" stop-color="#B5E0F7"/>
</linearGradient>
<linearGradient id="paint35_linear_1377_13099" x1="171.533" y1="464.15" x2="127.466" y2="402.798" gradientUnits="userSpaceOnUse">
<stop stop-color="#FF2A64"/>
<stop offset="0.0308184" stop-color="#FF3462"/>
<stop offset="0.1688" stop-color="#FF595A"/>
<stop offset="0.3129" stop-color="#FF7854"/>
<stop offset="0.4626" stop-color="#FF904E"/>
<stop offset="0.6203" stop-color="#FFA24B"/>
<stop offset="0.7913" stop-color="#FFAC49"/>
<stop offset="1" stop-color="#FFAF48"/>
</linearGradient>
<linearGradient id="paint36_linear_1377_13099" x1="187.348" y1="452.791" x2="143.281" y2="391.439" gradientUnits="userSpaceOnUse">
<stop stop-color="#FF2A64"/>
<stop offset="0.0308184" stop-color="#FF3462"/>
<stop offset="0.1688" stop-color="#FF595A"/>
<stop offset="0.3129" stop-color="#FF7854"/>
<stop offset="0.4626" stop-color="#FF904E"/>
<stop offset="0.6203" stop-color="#FFA24B"/>
<stop offset="0.7913" stop-color="#FFAC49"/>
<stop offset="1" stop-color="#FFAF48"/>
</linearGradient>
<linearGradient id="paint37_linear_1377_13099" x1="203.249" y1="441.37" x2="159.182" y2="380.018" gradientUnits="userSpaceOnUse">
<stop stop-color="#FF2A64"/>
<stop offset="0.0308184" stop-color="#FF3462"/>
<stop offset="0.1688" stop-color="#FF595A"/>
<stop offset="0.3129" stop-color="#FF7854"/>
<stop offset="0.4626" stop-color="#FF904E"/>
<stop offset="0.6203" stop-color="#FFA24B"/>
<stop offset="0.7913" stop-color="#FFAC49"/>
<stop offset="1" stop-color="#FFAF48"/>
</linearGradient>
<linearGradient id="paint38_linear_1377_13099" x1="221.47" y1="426.179" x2="187.47" y2="380.022" gradientUnits="userSpaceOnUse">
<stop stop-color="#002649"/>
<stop offset="0.3213" stop-color="#042A4F"/>
<stop offset="0.7475" stop-color="#0F3460"/>
<stop offset="1" stop-color="#183D6D"/>
</linearGradient>
<linearGradient id="paint39_linear_1377_13099" x1="220.614" y1="438.723" x2="177.687" y2="379.27" gradientUnits="userSpaceOnUse">
<stop stop-color="#FF2A64"/>
<stop offset="0.0308184" stop-color="#FF3462"/>
<stop offset="0.1688" stop-color="#FF595A"/>
<stop offset="0.3129" stop-color="#FF7854"/>
<stop offset="0.4626" stop-color="#FF904E"/>
<stop offset="0.6203" stop-color="#FFA24B"/>
<stop offset="0.7913" stop-color="#FFAC49"/>
<stop offset="1" stop-color="#FFAF48"/>
</linearGradient>
<linearGradient id="paint40_linear_1377_13099" x1="219.515" y1="342.214" x2="219.515" y2="260.311" gradientUnits="userSpaceOnUse">
<stop stop-color="#223C6A"/>
<stop offset="1" stop-color="#5A8AB7"/>
</linearGradient>
<linearGradient id="paint41_linear_1377_13099" x1="213.922" y1="349.051" x2="213.922" y2="301.821" gradientUnits="userSpaceOnUse">
<stop stop-color="#002649"/>
<stop offset="0.3213" stop-color="#042A4F"/>
<stop offset="0.7475" stop-color="#0F3460"/>
<stop offset="1" stop-color="#183D6D"/>
</linearGradient>
<linearGradient id="paint42_linear_1377_13099" x1="362.075" y1="502.717" x2="362.075" y2="318.572" gradientUnits="userSpaceOnUse">
<stop stop-color="#386E9F"/>
<stop offset="1" stop-color="white"/>
</linearGradient>
<linearGradient id="paint43_linear_1377_13099" x1="313.596" y1="667.399" x2="313.596" y2="217.406" gradientUnits="userSpaceOnUse">
<stop stop-color="#223C6A"/>
<stop offset="1" stop-color="#5A8AB7"/>
</linearGradient>
<linearGradient id="paint44_linear_1377_13099" x1="231.722" y1="485.678" x2="255.37" y2="384.533" gradientUnits="userSpaceOnUse">
<stop stop-color="#386E9F"/>
<stop offset="1" stop-color="white"/>
</linearGradient>
<linearGradient id="paint45_linear_1377_13099" x1="317.17" y1="389.499" x2="317.17" y2="472.41" gradientUnits="userSpaceOnUse">
<stop stop-color="white"/>
<stop offset="1" stop-color="#B5E0F7"/>
</linearGradient>
<linearGradient id="paint46_linear_1377_13099" x1="344.883" y1="493.6" x2="344.883" y2="406.1" gradientUnits="userSpaceOnUse">
<stop stop-color="#FF2A64"/>
<stop offset="0.0308184" stop-color="#FF3462"/>
<stop offset="0.1688" stop-color="#FF595A"/>
<stop offset="0.3129" stop-color="#FF7854"/>
<stop offset="0.4626" stop-color="#FF904E"/>
<stop offset="0.6203" stop-color="#FFA24B"/>
<stop offset="0.7913" stop-color="#FFAC49"/>
<stop offset="1" stop-color="#FFAF48"/>
</linearGradient>
<linearGradient id="paint47_linear_1377_13099" x1="344.882" y1="480.778" x2="344.882" y2="426.995" gradientUnits="userSpaceOnUse">
<stop stop-color="#002649"/>
<stop offset="0.3213" stop-color="#042A4F"/>
<stop offset="0.7475" stop-color="#0F3460"/>
<stop offset="1" stop-color="#183D6D"/>
</linearGradient>
<linearGradient id="paint48_linear_1377_13099" x1="344.883" y1="439.18" x2="344.883" y2="453.285" gradientUnits="userSpaceOnUse">
<stop stop-color="white"/>
<stop offset="1" stop-color="#F9E4CE"/>
</linearGradient>
<linearGradient id="paint49_linear_1377_13099" x1="235.386" y1="436.831" x2="341.66" y2="446.518" gradientUnits="userSpaceOnUse">
<stop stop-color="#FF2A64"/>
<stop offset="0.0308184" stop-color="#FF3462"/>
<stop offset="0.1688" stop-color="#FF595A"/>
<stop offset="0.3129" stop-color="#FF7854"/>
<stop offset="0.4626" stop-color="#FF904E"/>
<stop offset="0.6203" stop-color="#FFA24B"/>
<stop offset="0.7913" stop-color="#FFAC49"/>
<stop offset="1" stop-color="#FFAF48"/>
</linearGradient>
<linearGradient id="paint50_linear_1377_13099" x1="234.096" y1="450.977" x2="340.371" y2="460.664" gradientUnits="userSpaceOnUse">
<stop stop-color="#FF2A64"/>
<stop offset="0.0308184" stop-color="#FF3462"/>
<stop offset="0.1688" stop-color="#FF595A"/>
<stop offset="0.3129" stop-color="#FF7854"/>
<stop offset="0.4626" stop-color="#FF904E"/>
<stop offset="0.6203" stop-color="#FFA24B"/>
<stop offset="0.7913" stop-color="#FFAC49"/>
<stop offset="1" stop-color="#FFAF48"/>
</linearGradient>
<linearGradient id="paint51_linear_1377_13099" x1="362.629" y1="464.81" x2="415.054" y2="548.575" gradientUnits="userSpaceOnUse">
<stop stop-color="#223C6A"/>
<stop offset="1" stop-color="#5A8AB7"/>
</linearGradient>
<linearGradient id="paint52_linear_1377_13099" x1="138.7" y1="455.506" x2="66.3305" y2="585.428" gradientUnits="userSpaceOnUse">
<stop stop-color="#223C6A"/>
<stop offset="1" stop-color="#5A8AB7"/>
</linearGradient>
</defs>
</svg>
